<svg width="24" height="24" viewBox="0 0 24 24" fill="none" xmlns="http://www.w3.org/2000/svg">
<path d="M22.4997 9.18754C22.5013 9.90177 22.3613 10.6092 22.0878 11.269C21.8142 11.9288 21.4125 12.5277 20.906 13.0313L12.5341 21.5269C12.4643 21.5978 12.3811 21.6541 12.2894 21.6925C12.1977 21.7309 12.0992 21.7507 11.9997 21.7507C11.9003 21.7507 11.8018 21.7309 11.7101 21.6925C11.6183 21.6541 11.5352 21.5978 11.4654 21.5269L3.0935 13.0313C2.07283 12.0119 1.49893 10.6287 1.49805 9.18617C1.49717 7.7436 2.06938 6.35977 3.08881 5.3391C4.10823 4.31843 5.49137 3.74453 6.93393 3.74365C8.3765 3.74277 9.76033 4.31499 10.781 5.33441L11.9997 6.47348L13.2269 5.33066C13.9886 4.57278 14.9577 4.05754 16.012 3.85001C17.0662 3.64247 18.1584 3.75193 19.1505 4.16458C20.1426 4.57722 20.9902 5.27455 21.5863 6.16853C22.1824 7.0625 22.5002 8.11305 22.4997 9.18754Z" fill="#333B8F"/>
</svg>
