<svg width="24" height="24" viewBox="0 0 24 24" fill="none" xmlns="http://www.w3.org/2000/svg">
<path d="M21.5254 21.5344C21.3854 21.6723 21.1969 21.7497 21.0004 21.75C20.8012 21.7492 20.61 21.672 20.466 21.5344L16.416 17.475C14.7103 18.9077 12.5174 19.6266 10.2945 19.4817C8.07167 19.3369 5.99057 18.3394 4.48525 16.6975C2.97992 15.0555 2.16661 12.8958 2.21493 10.6688C2.26324 8.44175 3.16947 6.31934 4.74459 4.74422C6.31971 3.1691 8.44211 2.26288 10.6691 2.21456C12.8962 2.16624 15.0559 2.97956 16.6979 4.48488C18.3398 5.9902 19.3372 8.07131 19.4821 10.2941C19.627 12.517 18.9081 14.7099 17.4754 16.4156L21.5254 20.4656C21.5963 20.5354 21.6525 20.6186 21.6909 20.7104C21.7294 20.8021 21.7491 20.9006 21.7491 21C21.7491 21.0995 21.7294 21.1979 21.6909 21.2897C21.6525 21.3814 21.5963 21.4646 21.5254 21.5344ZM10.8754 18C12.2846 18 13.6621 17.5821 14.8338 16.7992C16.0055 16.0163 16.9188 14.9036 17.458 13.6016C17.9973 12.2997 18.1384 10.8671 17.8635 9.485C17.5886 8.10289 16.91 6.83334 15.9135 5.83689C14.9171 4.84044 13.6475 4.16185 12.2654 3.88693C10.8833 3.61201 9.45069 3.75311 8.14877 4.29238C6.84685 4.83166 5.73407 5.74489 4.95117 6.91659C4.16826 8.08829 3.75039 9.46583 3.75039 10.875C3.75287 12.7639 4.50433 14.5748 5.83999 15.9104C7.17565 17.2461 8.98648 17.9975 10.8754 18Z" fill="#333B8F"/>
</svg>
